<mxGraphModel dx="0" dy="0" grid="1" gridSize="10" guides="1" tooltips="1" connect="1" arrows="1" fold="1" page="0" pageScale="1" background="none" math="0" shadow="0">
  <root>
    <mxCell id="0" />
    <mxCell id="1" parent="0" />
    <mxCell id="node1" parent="1" vertex="1" value="&lt;p style=&quot;margin:0px;margin-top:4px;text-align:center;&quot;&gt;&lt;b&gt;Chat&lt;/b&gt;&lt;/p&gt;&lt;hr size=&quot;1&quot;/&gt;&lt;p style=&quot;margin:0 0 0 4px;line-height:1.6;&quot;&gt;+ Chat(String): &lt;br/&gt;+ Chat(): &lt;br/&gt;+ Chat(String, List&amp;lt;Message&amp;gt;): &lt;br/&gt;+ Chat(String, String, List&amp;lt;Message&amp;gt;): &lt;/p&gt;&lt;hr size=&quot;1&quot;/&gt;&lt;p style=&quot;margin:0 0 0 4px;line-height:1.6;&quot;&gt;+ id: String&lt;br/&gt;+ messageList: List&amp;lt;Message&amp;gt;&lt;br/&gt;+ status: String&lt;/p&gt;&lt;hr size=&quot;1&quot;/&gt;&lt;p style=&quot;margin:0 0 0 4px;line-height:1.6;&quot;&gt;+ getStatus(): String&lt;br/&gt;+ getId(): String&lt;br/&gt;+ setId(String): void&lt;br/&gt;+ toString(): String&lt;br/&gt;+ setStatus(String): void&lt;br/&gt;+ getMessageList(): List&amp;lt;Message&amp;gt;&lt;br/&gt;+ setMessageList(List&amp;lt;Message&amp;gt;): void&lt;/p&gt;" style="verticalAlign=top;align=left;overflow=fill;fontSize=14;fontFamily=Helvetica;html=1;rounded=0;shadow=0;comic=0;labelBackgroundColor=none;strokeWidth=1;">
      <mxGeometry x="717" y="-15" width="242" height="342" as="geometry" />
    </mxCell>
    <mxCell id="node3" parent="1" vertex="1" value="&lt;p style=&quot;margin:0px;margin-top:4px;text-align:center;&quot;&gt;&lt;b&gt;ChatAIActivity&lt;/b&gt;&lt;/p&gt;&lt;hr size=&quot;1&quot;/&gt;&lt;p style=&quot;margin:0 0 0 4px;line-height:1.6;&quot;&gt;+ ChatAIActivity(): &lt;/p&gt;&lt;hr size=&quot;1&quot;/&gt;&lt;p style=&quot;margin:0 0 0 4px;line-height:1.6;&quot;&gt;- GUESS_ACTIVITY_DELAY: int&lt;br/&gt;- userId: String&lt;br/&gt;- AI_MESSAGE_LETTER_DELAY: int&lt;br/&gt;- handler: Handler&lt;br/&gt;- messages: List&amp;lt;Message&amp;gt;&lt;br/&gt;- chatArea: LinearLayout&lt;br/&gt;- sendButton: ImageButton&lt;br/&gt;- chatAIDao: ChatAIDao&lt;br/&gt;- AI_MESSAGE_DELAY_MAX: int&lt;br/&gt;- AI_CONTEXT: String&lt;br/&gt;- scrollView: ScrollView&lt;br/&gt;- MAX_MESSAGES: int&lt;br/&gt;- isUserTurn: boolean&lt;br/&gt;- AI_MESSAGE_DELAY_MIN: int&lt;br/&gt;- limitTextView: TextView&lt;/p&gt;&lt;hr size=&quot;1&quot;/&gt;&lt;p style=&quot;margin:0 0 0 4px;line-height:1.6;&quot;&gt;- scrollDown(): void&lt;br/&gt;- delayedSuccess(String): void&lt;br/&gt;- addMessage(Message): void&lt;br/&gt;+ onSendButtonClick(View): void&lt;br/&gt;- sendAIMessage(): void&lt;br/&gt;# onCreate(Bundle): void&lt;br/&gt;- showError(String): void&lt;/p&gt;" style="verticalAlign=top;align=left;overflow=fill;fontSize=14;fontFamily=Helvetica;html=1;rounded=0;shadow=0;comic=0;labelBackgroundColor=none;strokeWidth=1;">
      <mxGeometry x="990" y="574" width="215" height="540" as="geometry" />
    </mxCell>
    <mxCell id="node13" parent="1" vertex="1" value="&lt;p style=&quot;margin:0px;margin-top:4px;text-align:center;&quot;&gt;&lt;b&gt;ChatAIDao&lt;/b&gt;&lt;/p&gt;&lt;hr size=&quot;1&quot;/&gt;&lt;p style=&quot;margin:0 0 0 4px;line-height:1.6;&quot;&gt;+ ChatAIDao(Context): &lt;/p&gt;&lt;hr size=&quot;1&quot;/&gt;&lt;p style=&quot;margin:0 0 0 4px;line-height:1.6;&quot;&gt;- CHAT_API_URL: String&lt;br/&gt;- requestQueue: RequestQueue&lt;br/&gt;- API_KEY: String&lt;/p&gt;&lt;hr size=&quot;1&quot;/&gt;&lt;p style=&quot;margin:0 0 0 4px;line-height:1.6;&quot;&gt;+ prompt(String, ChatCallback): void&lt;/p&gt;" style="verticalAlign=top;align=left;overflow=fill;fontSize=14;fontFamily=Helvetica;html=1;rounded=0;shadow=0;comic=0;labelBackgroundColor=none;strokeWidth=1;">
      <mxGeometry x="1346" y="-365" width="230" height="144" as="geometry" />
    </mxCell>
    <mxCell id="node9" parent="1" vertex="1" value="&lt;p style=&quot;margin:0px;margin-top:4px;text-align:center;&quot;&gt;&lt;b&gt;ChatHumanActivity&lt;/b&gt;&lt;/p&gt;&lt;hr size=&quot;1&quot;/&gt;&lt;p style=&quot;margin:0 0 0 4px;line-height:1.6;&quot;&gt;+ ChatHumanActivity(): &lt;/p&gt;&lt;hr size=&quot;1&quot;/&gt;&lt;p style=&quot;margin:0 0 0 4px;line-height:1.6;&quot;&gt;~ scrollView: ScrollView&lt;br/&gt;~ userId: String&lt;br/&gt;~ messages: List&amp;lt;Message&amp;gt;&lt;br/&gt;~ chatArea: LinearLayout&lt;br/&gt;- chatHumanDao: ChatHumanDao&lt;/p&gt;&lt;hr size=&quot;1&quot;/&gt;&lt;p style=&quot;margin:0 0 0 4px;line-height:1.6;&quot;&gt;+ onSendButtonClick(View): void&lt;br/&gt;- scrollDown(): void&lt;br/&gt;- addMessage(Message): void&lt;br/&gt;# onCreate(Bundle): void&lt;/p&gt;" style="verticalAlign=top;align=left;overflow=fill;fontSize=14;fontFamily=Helvetica;html=1;rounded=0;shadow=0;comic=0;labelBackgroundColor=none;strokeWidth=1;">
      <mxGeometry x="1250" y="574" width="222" height="254" as="geometry" />
    </mxCell>
    <mxCell id="node5" parent="1" vertex="1" value="&lt;p style=&quot;margin:0px;margin-top:4px;text-align:center;&quot;&gt;&lt;b&gt;ChatHumanDao&lt;/b&gt;&lt;/p&gt;&lt;hr size=&quot;1&quot;/&gt;&lt;p style=&quot;margin:0 0 0 4px;line-height:1.6;&quot;&gt;+ ChatHumanDao(Context): &lt;/p&gt;&lt;hr size=&quot;1&quot;/&gt;&lt;p style=&quot;margin:0 0 0 4px;line-height:1.6;&quot;&gt;- BASE_CHAT_URL: String&lt;br/&gt;- requestQueue: RequestQueue&lt;br/&gt;- CREATE_CHAT: String&lt;/p&gt;&lt;hr size=&quot;1&quot;/&gt;&lt;p style=&quot;margin:0 0 0 4px;line-height:1.6;&quot;&gt;+ postChat(Chat, ChatCallBack): void&lt;br/&gt;+ deleteChat(String, ChatCallBack): void&lt;br/&gt;+ getChats(ChatsCallBack): void&lt;br/&gt;+ updateChat(String, Chat, ChatCallBack): void&lt;br/&gt;+ getChatById(String, ChatCallBack): void&lt;/p&gt;" style="verticalAlign=top;align=left;overflow=fill;fontSize=14;fontFamily=Helvetica;html=1;rounded=0;shadow=0;comic=0;labelBackgroundColor=none;strokeWidth=1;">
      <mxGeometry x="1018" y="-365" width="283" height="232" as="geometry" />
    </mxCell>
    <mxCell id="node12" parent="1" vertex="1" value="&lt;p style=&quot;margin:0px;margin-top:4px;text-align:center;&quot;&gt;&lt;b&gt;ChatJsonParser&lt;/b&gt;&lt;/p&gt;&lt;hr size=&quot;1&quot;/&gt;&lt;p style=&quot;margin:0 0 0 4px;line-height:1.6;&quot;&gt;+ ChatJsonParser(): &lt;/p&gt;&lt;hr size=&quot;1&quot;/&gt;&lt;p style=&quot;margin:0 0 0 4px;line-height:1.6;&quot;&gt;+ parseChats(String): List&amp;lt;Chat&amp;gt;&lt;br/&gt;+ parseInsertedChatId(String): Chat&lt;br/&gt;+ parseGPT(String): String&lt;br/&gt;+ parseChat(String): Chat&lt;/p&gt;" style="verticalAlign=top;align=left;overflow=fill;fontSize=14;fontFamily=Helvetica;html=1;rounded=0;shadow=0;comic=0;labelBackgroundColor=none;strokeWidth=1;">
      <mxGeometry x="1004" y="379" width="221" height="143" as="geometry" />
    </mxCell>
    <mxCell id="node2" parent="1" vertex="1" value="&lt;p style=&quot;margin:0px;margin-top:4px;text-align:center;&quot;&gt;&lt;b&gt;Fact&lt;/b&gt;&lt;/p&gt;&lt;hr size=&quot;1&quot;/&gt;&lt;p style=&quot;margin:0 0 0 4px;line-height:1.6;&quot;&gt;+ Fact(String): &lt;br/&gt;+ Fact(): &lt;/p&gt;&lt;hr size=&quot;1&quot;/&gt;&lt;p style=&quot;margin:0 0 0 4px;line-height:1.6;&quot;&gt;+ text: String&lt;/p&gt;&lt;hr size=&quot;1&quot;/&gt;&lt;p style=&quot;margin:0 0 0 4px;line-height:1.6;&quot;&gt;+ setText(String): void&lt;br/&gt;+ toString(): String&lt;br/&gt;+ getText(): String&lt;/p&gt;" style="verticalAlign=top;align=left;overflow=fill;fontSize=14;fontFamily=Helvetica;html=1;rounded=0;shadow=0;comic=0;labelBackgroundColor=none;strokeWidth=1;">
      <mxGeometry x="1223" y="-15" width="151" height="166" as="geometry" />
    </mxCell>
    <mxCell id="node7" parent="1" vertex="1" value="&lt;p style=&quot;margin:0px;margin-top:4px;text-align:center;&quot;&gt;&lt;b&gt;FactDao&lt;/b&gt;&lt;/p&gt;&lt;hr size=&quot;1&quot;/&gt;&lt;p style=&quot;margin:0 0 0 4px;line-height:1.6;&quot;&gt;+ FactDao(Context): &lt;/p&gt;&lt;hr size=&quot;1&quot;/&gt;&lt;p style=&quot;margin:0 0 0 4px;line-height:1.6;&quot;&gt;- FACT_API_URL: String&lt;br/&gt;- JOKE_API_URL: String&lt;br/&gt;- requestQueue: RequestQueue&lt;br/&gt;- CHUCK_NORRIS_JOKE_API_URL: String&lt;br/&gt;- DAD_JOKE_API_URL: String&lt;br/&gt;- BASE_API_URL: String&lt;br/&gt;- API_KEY: String&lt;/p&gt;&lt;hr size=&quot;1&quot;/&gt;&lt;p style=&quot;margin:0 0 0 4px;line-height:1.6;&quot;&gt;+ getFact(FactCallback): void&lt;br/&gt;+ getChuckNorrisJoke(FactCallback): void&lt;br/&gt;+ getDadJoke(FactCallback): void&lt;br/&gt;+ getJoke(FactCallback): void&lt;/p&gt;" style="verticalAlign=top;align=left;overflow=fill;fontSize=14;fontFamily=Helvetica;html=1;rounded=0;shadow=0;comic=0;labelBackgroundColor=none;strokeWidth=1;">
      <mxGeometry x="717" y="-365" width="256" height="298" as="geometry" />
    </mxCell>
    <mxCell id="node4" parent="1" vertex="1" value="&lt;p style=&quot;margin:0px;margin-top:4px;text-align:center;&quot;&gt;&lt;b&gt;FactJsonParser&lt;/b&gt;&lt;/p&gt;&lt;hr size=&quot;1&quot;/&gt;&lt;p style=&quot;margin:0 0 0 4px;line-height:1.6;&quot;&gt;+ FactJsonParser(): &lt;/p&gt;&lt;hr size=&quot;1&quot;/&gt;&lt;p style=&quot;margin:0 0 0 4px;line-height:1.6;&quot;&gt;+ parseChuckNorrisJoke(String): Fact&lt;br/&gt;+ parseJoke(String): Fact&lt;br/&gt;+ parseDadJoke(String): Fact&lt;br/&gt;+ parseFact(String): Fact&lt;/p&gt;" style="verticalAlign=top;align=left;overflow=fill;fontSize=14;fontFamily=Helvetica;html=1;rounded=0;shadow=0;comic=0;labelBackgroundColor=none;strokeWidth=1;">
      <mxGeometry x="723" y="379" width="230" height="143" as="geometry" />
    </mxCell>
    <mxCell id="node0" parent="1" vertex="1" value="&lt;p style=&quot;margin:0px;margin-top:4px;text-align:center;&quot;&gt;&lt;b&gt;GameOverActivity&lt;/b&gt;&lt;/p&gt;&lt;hr size=&quot;1&quot;/&gt;&lt;p style=&quot;margin:0 0 0 4px;line-height:1.6;&quot;&gt;+ GameOverActivity(): &lt;/p&gt;&lt;hr size=&quot;1&quot;/&gt;&lt;p style=&quot;margin:0 0 0 4px;line-height:1.6;&quot;&gt;~ txtWinTitle: TextView&lt;br/&gt;~ txtWin: TextView&lt;br/&gt;~ txtLoseTitle: TextView&lt;br/&gt;~ txtLose: TextView&lt;/p&gt;&lt;hr size=&quot;1&quot;/&gt;&lt;p style=&quot;margin:0 0 0 4px;line-height:1.6;&quot;&gt;+ onClick(View): void&lt;br/&gt;# onCreate(Bundle): void&lt;/p&gt;" style="verticalAlign=top;align=left;overflow=fill;fontSize=14;fontFamily=Helvetica;html=1;rounded=0;shadow=0;comic=0;labelBackgroundColor=none;strokeWidth=1;">
      <mxGeometry x="1517" y="574" width="171" height="188" as="geometry" />
    </mxCell>
    <mxCell id="node10" parent="1" vertex="1" value="&lt;p style=&quot;margin:0px;margin-top:4px;text-align:center;&quot;&gt;&lt;b&gt;GuessActivity&lt;/b&gt;&lt;/p&gt;&lt;hr size=&quot;1&quot;/&gt;&lt;p style=&quot;margin:0 0 0 4px;line-height:1.6;&quot;&gt;+ GuessActivity(): &lt;/p&gt;&lt;hr size=&quot;1&quot;/&gt;&lt;p style=&quot;margin:0 0 0 4px;line-height:1.6;&quot;&gt;~ isHuman: boolean&lt;/p&gt;&lt;hr size=&quot;1&quot;/&gt;&lt;p style=&quot;margin:0 0 0 4px;line-height:1.6;&quot;&gt;+ onHumanButtonClick(View): void&lt;br/&gt;+ onAIButtonClick(View): void&lt;br/&gt;# onCreate(Bundle): void&lt;/p&gt;" style="verticalAlign=top;align=left;overflow=fill;fontSize=14;fontFamily=Helvetica;html=1;rounded=0;shadow=0;comic=0;labelBackgroundColor=none;strokeWidth=1;">
      <mxGeometry x="1733" y="574" width="224" height="144" as="geometry" />
    </mxCell>
    <mxCell id="node8" parent="1" vertex="1" value="&lt;p style=&quot;margin:0px;margin-top:4px;text-align:center;&quot;&gt;&lt;b&gt;LoadingActivity&lt;/b&gt;&lt;/p&gt;&lt;hr size=&quot;1&quot;/&gt;&lt;p style=&quot;margin:0 0 0 4px;line-height:1.6;&quot;&gt;+ LoadingActivity(): &lt;/p&gt;&lt;hr size=&quot;1&quot;/&gt;&lt;p style=&quot;margin:0 0 0 4px;line-height:1.6;&quot;&gt;- MINIMUM_DELAY: int&lt;br/&gt;- searchPlayer: Runnable&lt;br/&gt;- fetchFactRunnable: Runnable&lt;br/&gt;- isAccountIcon: boolean&lt;br/&gt;- chatHumanDao: ChatHumanDao&lt;br/&gt;- handler: Handler&lt;br/&gt;- SEARCH_TIMEOUT: int&lt;br/&gt;- iconImageView: ImageView&lt;br/&gt;- SWITCH_ICON_DELAY: int&lt;br/&gt;- switchIconRunnable: Runnable&lt;br/&gt;- MAXIMUM_DELAY: int&lt;br/&gt;- FETCH_FACT_DELAY: int&lt;br/&gt;- chatFound: boolean&lt;br/&gt;- ownId: String&lt;br/&gt;- factDao: FactDao&lt;br/&gt;- SEARCH_CHAT_DELAY: int&lt;br/&gt;- factTextView: TextView&lt;/p&gt;&lt;hr size=&quot;1&quot;/&gt;&lt;p style=&quot;margin:0 0 0 4px;line-height:1.6;&quot;&gt;- findChat(): void&lt;br/&gt;# onPause(): void&lt;br/&gt;- updateFactTextView(Fact): void&lt;br/&gt;# onCreate(Bundle): void&lt;br/&gt;- updateChat(String): void&lt;br/&gt;- createChat(): void&lt;/p&gt;" style="verticalAlign=top;align=left;overflow=fill;fontSize=14;fontFamily=Helvetica;html=1;rounded=0;shadow=0;comic=0;labelBackgroundColor=none;strokeWidth=1;">
      <mxGeometry x="723" y="574" width="222" height="562" as="geometry" />
    </mxCell>
    <mxCell id="node6" parent="1" vertex="1" value="&lt;p style=&quot;margin:0px;margin-top:4px;text-align:center;&quot;&gt;&lt;b&gt;MainActivity&lt;/b&gt;&lt;/p&gt;&lt;hr size=&quot;1&quot;/&gt;&lt;p style=&quot;margin:0 0 0 4px;line-height:1.6;&quot;&gt;+ MainActivity(): &lt;/p&gt;&lt;hr size=&quot;1&quot;/&gt;&lt;p style=&quot;margin:0 0 0 4px;line-height:1.6;&quot;&gt;+ onClick(View): void&lt;br/&gt;# onCreate(Bundle): void&lt;/p&gt;" style="verticalAlign=top;align=left;overflow=fill;fontSize=14;fontFamily=Helvetica;html=1;rounded=0;shadow=0;comic=0;labelBackgroundColor=none;strokeWidth=1;">
      <mxGeometry x="2002" y="574" width="168" height="107" as="geometry" />
    </mxCell>
    <mxCell id="node11" parent="1" vertex="1" value="&lt;p style=&quot;margin:0px;margin-top:4px;text-align:center;&quot;&gt;&lt;b&gt;Message&lt;/b&gt;&lt;/p&gt;&lt;hr size=&quot;1&quot;/&gt;&lt;p style=&quot;margin:0 0 0 4px;line-height:1.6;&quot;&gt;+ Message(String, String): &lt;/p&gt;&lt;hr size=&quot;1&quot;/&gt;&lt;p style=&quot;margin:0 0 0 4px;line-height:1.6;&quot;&gt;+ sender: String&lt;br/&gt;+ text: String&lt;/p&gt;&lt;hr size=&quot;1&quot;/&gt;&lt;p style=&quot;margin:0 0 0 4px;line-height:1.6;&quot;&gt;+ setSender(String): void&lt;br/&gt;+ getText(): String&lt;br/&gt;+ toString(): String&lt;br/&gt;+ setText(String): void&lt;br/&gt;+ getSender(): String&lt;/p&gt;" style="verticalAlign=top;align=left;overflow=fill;fontSize=14;fontFamily=Helvetica;html=1;rounded=0;shadow=0;comic=0;labelBackgroundColor=none;strokeWidth=1;">
      <mxGeometry x="1004" y="-15" width="174" height="210" as="geometry" />
    </mxCell>
  </root>
</mxGraphModel>